# xmcd CD database file
#
# Track frame offsets:
#	150
#	11152
#	24310
#	41080
#	62185
#	74550
#	90220
#	105710
#	120162
#	133585
#	149442
#	165097
#
# Disc length: 2396 seconds
#
# Revision: 0
# Processed by: cddbd v1.5.2PL0 Copyright (c) Steve Scherf et al.
# Submitted via: CDex 1.51
#
DISCID=98095a0c
DTITLE=Kane Bros. Blues Band - Kane Bros. Blues Band
DYEAR=2004
DGENRE=Blues
TTITLE0=Off The Wall
TTITLE1=Mellow Down Easy
TTITLE2=Little By Little
TTITLE3=Standing Around Crying
TTITLE4=Stumble
TTITLE5=Rocket 88
TTITLE6=Going Back To Iuka
TTITLE7=I Just Want To Make Love To You
TTITLE8=Side Tracked
TTITLE9=Gone And Left Me
TTITLE10=How Many More Years
TTITLE11=Flip, Flop and Fly
EXTD=YEAR: 2004
EXTT0=
EXTT1=
EXTT2=
EXTT3=
EXTT4=
EXTT5=
EXTT6=
EXTT7=
EXTT8=
EXTT9=
EXTT10=
EXTT11=
PLAYORDER=
